<?xml version="1.0" standalone="no"?>
<!DOCTYPE svg PUBLIC "-//W3C//DTD SVG 20010904//EN"
 "http://www.w3.org/TR/2001/REC-SVG-20010904/DTD/svg10.dtd">
<svg version="1.0" xmlns="http://www.w3.org/2000/svg"
 width="16.000000pt" height="16.000000pt" viewBox="0 0 16.000000 16.000000"
 preserveAspectRatio="xMidYMid meet">
<metadata>
Created by potrace 1.11, written by Peter Selinger 2001-2013
</metadata>
<g transform="translate(0.000000,16.000000) scale(0.002286,-0.002286)"
fill="#000000" stroke="none">
<path d="M835 6975 c-185 -43 -307 -102 -448 -215 -190 -153 -313 -364 -367
-631 -20 -100 -20 -127 -20 -2623 0 -2687 -1 -2581 46 -2746 44 -155 143 -320
262 -439 165 -165 373 -268 606 -300 54 -8 862 -11 2610 -11 2746 0 2607 -3
2771 53 216 74 407 221 532 411 82 125 124 237 153 408 20 117 20 165 20 2626
0 2154 -2 2520 -15 2597 -37 226 -155 448 -322 606 -151 142 -313 222 -542
268 -103 21 -111 21 -2645 20 l-2541 0 -100 -24z m5299 -229 c171 -45 300
-120 413 -240 124 -130 200 -290 223 -468 14 -116 14 -4971 -1 -5088 -24 -191
-96 -337 -239 -480 -146 -146 -293 -218 -491 -240 -65 -8 -857 -10 -2599 -8
l-2505 3 -75 21 c-306 88 -521 307 -602 614 l-23 85 0 2545 c0 2438 1 2548 18
2624 63 268 239 481 483 584 69 29 180 57 254 65 19 2 1169 3 2555 3 2408 -2
2523 -2 2589 -20z"/>
<path d="M4469 6478 c-30 -26 -331 -404 -349 -438 -8 -14 -10 -40 -6 -66 5
-41 4 -44 -22 -50 -44 -10 -922 -344 -976 -371 -89 -45 -160 -130 -292 -348
-281 -464 -279 -459 -278 -570 0 -68 15 -142 41 -212 4 -10 -31 -13 -153 -14
-175 0 -221 -10 -241 -49 -10 -19 -13 -153 -13 -577 l0 -553 -52 0 c-157 -2
-266 -34 -343 -101 -42 -37 -210 -287 -241 -359 -18 -43 -19 -87 -22 -1147
l-3 -1103 106 0 105 0 0 1068 c0 842 3 1078 13 1117 13 51 115 214 170 273
l31 32 118 0 118 0 0 -105 0 -105 -133 0 c-149 0 -168 -6 -187 -66 -16 -48 2
-92 46 -110 50 -21 2759 -21 2808 0 64 27 71 137 10 165 -14 6 -76 11 -144 11
l-120 0 0 111 0 111 83 -7 c45 -4 89 -11 99 -16 28 -15 109 -130 149 -213 l39
-80 0 -1088 0 -1088 105 0 105 0 0 1105 c0 1046 -1 1107 -18 1153 -27 70 -181
300 -231 345 -56 50 -131 85 -200 92 -31 3 -75 8 -98 11 l-43 5 0 332 0 332
23 25 c13 14 61 57 107 95 151 128 289 304 438 561 77 133 234 441 306 606
l48 106 91 -5 c86 -4 95 -3 147 24 61 31 102 83 119 150 6 23 11 138 11 258 0
170 -3 222 -15 244 -13 25 -83 58 -592 276 -318 136 -591 249 -608 251 -22 4
-37 -1 -56 -18z m487 -367 c451 -195 565 -247 576 -264 4 -7 8 -82 8 -167 0
-168 -8 -199 -53 -201 -24 0 -1128 552 -1124 563 4 13 191 238 197 238 4 0
182 -76 396 -169z m-161 -527 c226 -114 412 -208 414 -210 7 -6 -131 -305
-211 -457 -173 -328 -313 -541 -453 -685 -125 -132 -256 -221 -408 -281 -117
-47 -197 -89 -466 -248 -280 -167 -294 -173 -357 -173 -150 0 -232 183 -138
307 14 18 98 78 197 139 94 58 223 138 284 176 131 80 146 97 278 308 53 85
109 169 125 185 76 81 97 146 64 193 -23 34 -45 41 -148 52 -110 11 -198 42
-307 105 -103 61 -126 60 -192 -9 -65 -66 -112 -102 -202 -151 -157 -86 -255
-147 -265 -165 -5 -10 -10 -36 -10 -58 0 -39 16 -67 89 -152 16 -19 27 -38 25
-42 -3 -5 -70 -8 -150 -8 l-145 0 -29 62 c-64 135 -53 197 70 381 48 73 125
197 171 277 86 150 133 211 180 235 15 8 152 59 305 114 154 55 403 147 554
205 151 58 284 105 295 105 11 1 205 -92 430 -205z m-1133 -797 c29 -13 81
-31 116 -42 55 -16 61 -20 48 -34 -7 -9 -46 -68 -86 -131 -108 -173 -89 -160
-251 -160 -159 0 -154 -2 -200 98 -24 53 -27 68 -17 78 12 12 329 214 335 214
1 0 26 -10 55 -23z m-559 -586 l198 -6 -125 -82 c-135 -90 -191 -149 -226
-240 -55 -144 -20 -310 88 -421 114 -117 309 -149 455 -76 28 15 110 63 181
109 270 169 522 305 567 305 5 0 9 -200 9 -495 l0 -495 -940 0 -940 0 0 705 0
705 268 -1 c147 -1 356 -4 465 -8z"/>
<path d="M3066 2384 c-462 -83 -832 -438 -949 -909 -19 -78 -22 -116 -22 -280
1 -165 4 -201 24 -274 45 -170 143 -374 185 -391 12 -4 461 -9 998 -11 804 -3
978 -1 992 10 23 19 121 224 146 306 34 113 50 230 50 365 0 322 -106 590
-325 819 -182 191 -424 322 -678 367 -103 18 -317 17 -421 -2z m-360 -614 c20
0 264 -232 422 -400 l130 -138 109 100 c59 56 162 154 228 219 66 65 133 123
148 128 111 43 217 -73 163 -177 -8 -15 -140 -151 -293 -304 -239 -238 -283
-277 -316 -283 -22 -4 -49 -3 -65 4 -15 7 -176 160 -357 341 l-330 330 0 54
c0 47 4 59 30 86 29 31 78 52 103 44 8 -2 20 -4 28 -4z"/>
</g>
</svg>
