<?xml version="1.0" encoding="utf-8"?>
<!-- Generator: Adobe Illustrator 17.1.0, SVG Export Plug-In . SVG Version: 6.00 Build 0)  -->
<!DOCTYPE svg PUBLIC "-//W3C//DTD SVG 1.1//EN" "http://www.w3.org/Graphics/SVG/1.1/DTD/svg11.dtd">
<svg version="1.1" id="Capa_1" xmlns="http://www.w3.org/2000/svg" xmlns:xlink="http://www.w3.org/1999/xlink" x="0px" y="0px"
	 viewBox="0 0 114.1 11.4" enable-background="new 0 0 114.1 11.4" xml:space="preserve">
<g>
	<path fill="#FFFFFF" d="M0,3.1C0,3,0.1,2.9,0.2,2.9h5c0.1,0,0.2,0.1,0.2,0.2v1.3c0,0.1-0.1,0.2-0.2,0.2H1.9v1.5h2.7
		c0.1,0,0.2,0.1,0.2,0.2v1.3c0,0.1-0.1,0.2-0.2,0.2H1.9v1.6h3.3c0.1,0,0.2,0.1,0.2,0.2V11c0,0.1-0.1,0.2-0.2,0.2h-5
		C0.1,11.3,0,11.2,0,11V3.1z"/>
	<path fill="#FFFFFF" d="M6.9,3.1C6.9,3,7,2.9,7.2,2.9h1.4c0.1,0,0.2,0.1,0.2,0.2v6.4h2.9c0.1,0,0.2,0.1,0.2,0.2V11
		c0,0.1-0.1,0.2-0.2,0.2H7.2c-0.1,0-0.2-0.1-0.2-0.2V3.1z"/>
	<path fill="#FFFFFF" d="M16.7,2.8c2.4,0,4.3,1.9,4.3,4.3c0,2.4-1.9,4.3-4.3,4.3c-2.4,0-4.3-1.9-4.3-4.3C12.4,4.7,14.3,2.8,16.7,2.8
		z M16.7,9.5c1.3,0,2.4-1.1,2.4-2.4c0-1.3-1.1-2.4-2.4-2.4c-1.3,0-2.4,1.1-2.4,2.4C14.3,8.4,15.4,9.5,16.7,9.5z"/>
	<path fill="#FFFFFF" d="M21.4,10.2l0.8-0.8c0.1-0.1,0.2-0.1,0.3,0c0.1,0.1,0.3,0.3,0.6,0.3c0.3,0,0.7-0.1,0.7-0.8V3.1
		c0-0.1,0.1-0.2,0.2-0.2h1.5c0.1,0,0.2,0.1,0.2,0.2v5.8c0,1.7-1.2,2.5-2.5,2.5c-1.2,0-1.7-0.6-1.9-0.9
		C21.3,10.4,21.3,10.3,21.4,10.2z"/>
	<path fill="#FFFFFF" d="M31.4,2.8c2.4,0,4.3,1.9,4.3,4.3c0,2.4-1.9,4.3-4.3,4.3c-2.4,0-4.3-1.9-4.3-4.3C27.1,4.7,29,2.8,31.4,2.8z
		 M31.4,9.5c1.3,0,2.4-1.1,2.4-2.4c0-1.3-1.1-2.4-2.4-2.4c-1.3,0-2.4,1.1-2.4,2.4C29,8.4,30.1,9.5,31.4,9.5z"/>
	<path fill="#FFFFFF" d="M41,2.8c1,0,2.1,0.4,2.9,1.1C44,4,44,4.1,43.9,4.2l-0.9,1c-0.1,0.1-0.2,0.1-0.3,0c-0.5-0.4-1-0.6-1.6-0.6
		c-1.3,0-2.4,1.1-2.4,2.4c0,1.3,1.1,2.4,2.4,2.4c0.3,0,0.7,0,1.1-0.2V8.6h-0.8c-0.1,0-0.2-0.1-0.2-0.2V7.2c0-0.1,0.1-0.2,0.2-0.2
		h2.4c0.1,0,0.2,0.1,0.2,0.2l0,3.2c0,0.1,0,0.2-0.1,0.2c0,0-1.2,0.8-3,0.8c-2.4,0-4.3-1.9-4.3-4.3C36.7,4.7,38.6,2.8,41,2.8z"/>
	<path fill="#FFFFFF" d="M45.6,3.1c0-0.1,0.1-0.2,0.2-0.2h3.6c1.5,0,2.6,1.2,2.6,2.6c0,1.1-0.7,2-1.8,2.4l1.6,3
		c0.1,0.2,0,0.3-0.2,0.3h-1.6c-0.1,0-0.2-0.1-0.2-0.1L48.4,8h-0.8V11c0,0.1-0.1,0.2-0.2,0.2h-1.4c-0.1,0-0.2-0.1-0.2-0.2V3.1z
		 M49.3,6.5c0.5,0,0.9-0.4,0.9-1c0-0.6-0.4-0.9-0.9-0.9h-1.8v1.9H49.3z"/>
	<path fill="#FFFFFF" d="M52.6,11l3.8-8.1c0-0.1,0.1-0.1,0.2-0.1h0.1c0.1,0,0.2,0.1,0.2,0.1l3.8,8.1c0.1,0.2,0,0.3-0.2,0.3h-1.3
		c-0.2,0-0.3-0.1-0.4-0.3L58.3,10H55l-0.4,1c-0.1,0.1-0.2,0.3-0.4,0.3h-1.3C52.7,11.3,52.6,11.1,52.6,11z M55.5,2l-0.3-0.5
		c0-0.1,0-0.2,0.1-0.2l2-1.2c0.1,0,0.3-0.1,0.3,0l0.4,0.7c0.1,0.2,0,0.3-0.1,0.4l-2.2,1C55.7,2.2,55.5,2.1,55.5,2z M57.6,8.4l-0.9-2
		h0l-0.9,2H57.6z"/>
	<path fill="#FFFFFF" d="M61.6,3.1c0-0.1,0.1-0.2,0.2-0.2h5c0.1,0,0.2,0.1,0.2,0.2v1.3c0,0.1-0.1,0.2-0.2,0.2h-3.3v1.7h2.7
		c0.1,0,0.2,0.1,0.2,0.2v1.3c0,0.1-0.1,0.2-0.2,0.2h-2.7V11c0,0.1-0.1,0.2-0.2,0.2h-1.4c-0.1,0-0.2-0.1-0.2-0.2V3.1z"/>
	<path fill="#FFFFFF" d="M68.3,3.1c0-0.1,0.1-0.2,0.2-0.2H70c0.1,0,0.2,0.1,0.2,0.2V11c0,0.1-0.1,0.2-0.2,0.2h-1.4
		c-0.1,0-0.2-0.1-0.2-0.2V3.1z"/>
	<path fill="#FFFFFF" d="M75.9,2.8c1.2,0,2.1,0.4,2.9,1.1C79,4,79,4.1,78.9,4.2l-0.9,1c-0.1,0.1-0.2,0.1-0.3,0
		c-0.5-0.4-1-0.6-1.6-0.6c-1.4,0-2.4,1.1-2.4,2.5c0,1.3,1,2.4,2.4,2.4c0.7,0,1.2-0.2,1.6-0.6c0.1-0.1,0.2-0.1,0.3,0l0.9,1
		c0.1,0.1,0.1,0.2,0,0.3C78,11,77,11.4,75.9,11.4c-2.4,0-4.3-1.9-4.3-4.3C71.6,4.7,73.5,2.8,75.9,2.8z"/>
	<path fill="#FFFFFF" d="M83.9,2.8c2.4,0,4.3,1.9,4.3,4.3c0,2.4-1.9,4.3-4.3,4.3s-4.3-1.9-4.3-4.3C79.5,4.7,81.5,2.8,83.9,2.8z
		 M83.9,9.5c1.3,0,2.4-1.1,2.4-2.4c0-1.3-1.1-2.4-2.4-2.4c-1.3,0-2.4,1.1-2.4,2.4C81.5,8.4,82.5,9.5,83.9,9.5z"/>
	<path fill="#FFFFFF" d="M90.2,8.8c0.7,0,1.3,0.6,1.3,1.3c0,0.7-0.6,1.3-1.3,1.3c-0.7,0-1.3-0.6-1.3-1.3C88.9,9.4,89.5,8.8,90.2,8.8
		z"/>
	<path fill="#FFFFFF" d="M92.9,3c0-0.1,0.1-0.2,0.2-0.2h0.2c0.1,0,0.2,0.1,0.3,0.2l4.6,4.4h0V3.1c0-0.1,0.1-0.2,0.2-0.2h1.4
		c0.1,0,0.2,0.1,0.2,0.2v8.1c0,0.1-0.1,0.2-0.2,0.2h-0.1c-0.1,0-0.2,0-0.3-0.1l-4.7-4.7h0V11c0,0.1-0.1,0.2-0.2,0.2h-1.4
		c-0.1,0-0.2-0.1-0.2-0.2L92.9,3z"/>
	<path fill="#FFFFFF" d="M102,3.1c0-0.1,0.1-0.2,0.2-0.2h5c0.1,0,0.2,0.1,0.2,0.2v1.3c0,0.1-0.1,0.2-0.2,0.2h-3.3v1.5h2.7
		c0.1,0,0.2,0.1,0.2,0.2v1.3c0,0.1-0.1,0.2-0.2,0.2h-2.7v1.6h3.3c0.1,0,0.2,0.1,0.2,0.2V11c0,0.1-0.1,0.2-0.2,0.2h-5
		c-0.1,0-0.2-0.1-0.2-0.2V3.1z"/>
	<path fill="#FFFFFF" d="M110.2,4.6h-1.7c-0.1,0-0.2-0.1-0.2-0.2V3.1c0-0.1,0.1-0.2,0.2-0.2h5.3c0.1,0,0.2,0.1,0.2,0.2v1.3
		c0,0.1-0.1,0.2-0.2,0.2h-1.7V11c0,0.1-0.1,0.2-0.2,0.2h-1.4c-0.1,0-0.2-0.1-0.2-0.2V4.6z"/>
</g>
</svg>
