<?xml version="1.0" encoding="utf-8"?>
<!-- Generator: Adobe Illustrator 17.1.0, SVG Export Plug-In . SVG Version: 6.00 Build 0)  -->
<!DOCTYPE svg PUBLIC "-//W3C//DTD SVG 1.1//EN" "http://www.w3.org/Graphics/SVG/1.1/DTD/svg11.dtd">
<svg version="1.1" id="Capa_1" xmlns="http://www.w3.org/2000/svg" xmlns:xlink="http://www.w3.org/1999/xlink" x="0px" y="0px"
	 viewBox="0 0 73 40" enable-background="new 0 0 73 40" xml:space="preserve">
<g>
	<g>
		<linearGradient id="SVGID_1_" gradientUnits="userSpaceOnUse" x1="1.8252" y1="20.3398" x2="69.8252" y2="19.6731">
			<stop  offset="6.363600e-02" style="stop-color:#FFFFFF"/>
			<stop  offset="1" style="stop-color:#FFFFFF;stop-opacity:0.7"/>
		</linearGradient>
		<path fill="url(#SVGID_1_)" d="M53.2,40H19.8C8.9,40,0,31.1,0,20.2l0-0.4C0,8.9,8.9,0,19.8,0l33.4,0C64.1,0,73,8.9,73,19.8v0.4
			C73,31.1,64.1,40,53.2,40z"/>
	</g>
	<g>
		<linearGradient id="SVGID_2_" gradientUnits="userSpaceOnUse" x1="4.0593" y1="20.0792" x2="68.3627" y2="19.4488">
			<stop  offset="6.363600e-02" style="stop-color:#FFFFFF"/>
			<stop  offset="1" style="stop-color:#FFFFFF;stop-opacity:0.7"/>
		</linearGradient>
		<path fill="url(#SVGID_2_)" d="M71.3,20c0,9.8-8,17.8-17.8,17.8H20.1c-9.8,0-17.8-8-17.8-17.8v-0.4c0-9.8,8-17.8,17.8-17.8h33.4
			c9.8,0,17.8,8,17.8,17.8V20z"/>
		<path fill="none" stroke="#FF8D36" stroke-miterlimit="10" d="M70.8,20.5c0,9.8-8,17.8-17.8,17.8H19.6c-9.8,0-17.8-8-17.8-17.8
			v-0.4c0-9.8,8-17.8,17.8-17.8H53c9.8,0,17.8,8,17.8,17.8V20.5z"/>
	</g>
	
		<polyline fill="none" stroke="#FF8D36" stroke-width="3" stroke-linecap="round" stroke-linejoin="round" stroke-miterlimit="10" points="
		50.3,10.5 35.4,27.4 26,19.9 	"/>
</g>
</svg>
