<?xml version="1.0" encoding="utf-8"?>
<!-- Generator: Adobe Illustrator 17.1.0, SVG Export Plug-In . SVG Version: 6.00 Build 0)  -->
<!DOCTYPE svg PUBLIC "-//W3C//DTD SVG 1.1//EN" "http://www.w3.org/Graphics/SVG/1.1/DTD/svg11.dtd">
<svg version="1.1" id="Capa_1" xmlns="http://www.w3.org/2000/svg" xmlns:xlink="http://www.w3.org/1999/xlink" x="0px" y="0px"
	 viewBox="0 0 168.5 74.4" enable-background="new 0 0 168.5 74.4" xml:space="preserve">
<g>
	<g>
		<path fill="#FFFFFF" d="M53.1,38.9v-3.2c0-2.1,0.6-3.8,1.9-5.2c1.2-1.3,3.1-2,5.6-2c1.6,0,2.8,0.3,3.9,0.8c1,0.5,1.6,1.1,1.6,1.8
			c0,0.4-0.1,0.8-0.4,1.2c-0.3,0.4-0.7,0.6-1,0.6c-0.1,0-0.5-0.2-1.3-0.5c-0.7-0.4-1.5-0.5-2.4-0.5c-2.6,0-3.9,1.3-3.9,3.8v3.2
			c0,2.5,1.3,3.8,4,3.8c0.9,0,1.7-0.2,2.5-0.6c0.7-0.4,1.2-0.6,1.3-0.6c0.5,0,0.9,0.2,1.2,0.6c0.3,0.4,0.4,0.8,0.4,1.2
			c0,0.7-0.6,1.3-1.7,1.9c-1.1,0.6-2.4,0.9-4,0.9c-2.5,0-4.4-0.7-5.6-1.9C53.7,42.7,53.1,41,53.1,38.9z"/>
		<path fill="#FFFFFF" d="M69.7,44.4V19.9c0-0.4,0.2-0.7,0.5-0.9c0.3-0.2,0.8-0.3,1.3-0.3s1,0.1,1.3,0.3c0.4,0.2,0.6,0.5,0.6,0.9
			v11.4c0.4-0.8,1-1.4,1.8-1.9c0.8-0.5,1.8-0.8,2.8-0.8c1.7,0,3.2,0.7,4.4,2.1c1.2,1.4,1.9,3,1.9,5v8.9c0,0.4-0.2,0.7-0.6,0.9
			s-0.8,0.3-1.3,0.3c-0.5,0-0.9-0.1-1.3-0.3s-0.6-0.5-0.6-0.9v-8.9c0-0.9-0.4-1.8-1.1-2.6c-0.7-0.8-1.6-1.1-2.6-1.1
			c-0.9,0-1.7,0.3-2.4,1s-1,1.6-1,2.7v8.9c0,0.3-0.2,0.6-0.6,0.9c-0.4,0.3-0.8,0.4-1.3,0.4s-0.9-0.1-1.3-0.4
			C69.8,45.1,69.7,44.8,69.7,44.4z"/>
		<path fill="#FFFFFF" d="M88.1,38.9v-3.4c0-1.9,0.7-3.5,2.2-4.9c1.5-1.4,3.2-2,5.3-2c1.9,0,3.7,0.6,5,1.9c1.4,1.2,2.1,2.8,2.1,4.7
			c0,0.7-0.1,1.3-0.2,1.8c-0.2,0.5-0.4,0.8-0.8,0.9c-0.4,0.2-0.7,0.3-1,0.3c-0.3,0-0.7,0.1-1.2,0.1h-7.5v0.9c0,1.2,0.4,2.2,1.3,2.9
			c0.9,0.7,2,1,3.4,1c1,0,1.9-0.2,2.8-0.7c0.9-0.5,1.4-0.7,1.6-0.7c0.4,0,0.8,0.2,1,0.6c0.3,0.4,0.4,0.8,0.4,1.1
			c0,0.6-0.6,1.2-1.7,1.8c-1.1,0.6-2.6,0.9-4.2,0.9c-2.4,0-4.4-0.7-6-2C88.9,42.7,88.1,41,88.1,38.9z M91.9,35.8h5.9
			c0.5,0,0.9,0,1-0.2c0.2-0.1,0.3-0.4,0.3-0.9c0-0.9-0.3-1.8-1-2.4c-0.7-0.7-1.6-1-2.6-1c-1,0-1.9,0.3-2.6,0.9
			c-0.7,0.6-1.1,1.4-1.1,2.4L91.9,35.8L91.9,35.8z"/>
		<path fill="#FFFFFF" d="M105.9,38.9v-3.2c0-2.1,0.6-3.8,1.9-5.2c1.2-1.3,3.1-2,5.6-2c1.6,0,2.8,0.3,3.9,0.8c1,0.5,1.6,1.1,1.6,1.8
			c0,0.4-0.1,0.8-0.4,1.2c-0.3,0.4-0.7,0.6-1,0.6c-0.1,0-0.5-0.2-1.3-0.5c-0.7-0.4-1.5-0.5-2.4-0.5c-2.6,0-3.9,1.3-3.9,3.8v3.2
			c0,2.5,1.3,3.8,4,3.8c0.9,0,1.7-0.2,2.5-0.6c0.7-0.4,1.2-0.6,1.3-0.6c0.5,0,0.9,0.2,1.2,0.6c0.3,0.4,0.4,0.8,0.4,1.2
			c0,0.7-0.6,1.3-1.7,1.9c-1.1,0.6-2.4,0.9-4,0.9c-2.5,0-4.4-0.7-5.6-1.9C106.5,42.7,105.9,41,105.9,38.9z"/>
		<path fill="#FFFFFF" d="M122.5,44.4V19.8c0-0.4,0.2-0.7,0.5-0.9s0.8-0.3,1.3-0.3s1,0.1,1.4,0.3c0.4,0.2,0.6,0.5,0.6,0.9v15.9
			l7.5-6.9c0.2-0.2,0.5-0.3,0.8-0.3c0.4,0,0.8,0.2,1.2,0.6c0.4,0.4,0.6,0.8,0.6,1.2c0,0.3-0.1,0.6-0.3,0.8l-4.6,4.1l5.6,8.1
			c0.1,0.2,0.2,0.4,0.2,0.7c0,0.4-0.2,0.9-0.7,1.3c-0.5,0.4-0.9,0.6-1.4,0.6c-0.4,0-0.8-0.2-1-0.5l-5.3-7.8l-2.6,2.4v4.5
			c0,0.3-0.2,0.6-0.6,0.9c-0.4,0.3-0.9,0.4-1.4,0.4c-0.5,0-0.9-0.1-1.3-0.4C122.7,45.1,122.5,44.8,122.5,44.4z"/>
		<path fill="#FFFFFF" d="M139.4,38.9v-3.4c0-1.9,0.7-3.5,2.2-4.9c1.5-1.4,3.2-2,5.3-2c1.9,0,3.7,0.6,5,1.9c1.4,1.2,2.1,2.8,2.1,4.7
			c0,0.7-0.1,1.3-0.2,1.8c-0.2,0.5-0.4,0.8-0.8,0.9c-0.4,0.2-0.7,0.3-1,0.3c-0.3,0-0.7,0.1-1.2,0.1h-7.5v0.9c0,1.2,0.4,2.2,1.3,2.9
			c0.9,0.7,2,1,3.4,1c1,0,1.9-0.2,2.8-0.7c0.9-0.4,1.4-0.7,1.6-0.7c0.4,0,0.8,0.2,1,0.6c0.3,0.4,0.4,0.8,0.4,1.1
			c0,0.6-0.6,1.2-1.7,1.8c-1.1,0.6-2.6,0.9-4.2,0.9c-2.4,0-4.4-0.7-6-2C140.2,42.7,139.4,41,139.4,38.9z M143.2,35.8h5.9
			c0.5,0,0.9,0,1-0.2c0.2-0.1,0.3-0.4,0.3-0.9c0-0.9-0.3-1.8-1-2.4c-0.7-0.7-1.6-1-2.6-1c-1,0-1.9,0.3-2.6,0.9
			c-0.7,0.6-1.1,1.4-1.1,2.4L143.2,35.8L143.2,35.8z"/>
		<path fill="#FFFFFF" d="M157.8,44.4V29.9c0-0.4,0.2-0.7,0.5-0.9c0.3-0.2,0.8-0.3,1.3-0.3c0.5,0,0.9,0.1,1.2,0.3
			c0.3,0.2,0.5,0.5,0.5,0.9v1.6c0.4-0.9,1-1.6,1.9-2.1s1.7-0.9,2.7-0.9h1.1c0.4,0,0.7,0.1,1,0.5s0.4,0.7,0.4,1.2
			c0,0.5-0.1,0.9-0.4,1.2c-0.3,0.3-0.6,0.5-1,0.5h-1.1c-1.1,0-2.1,0.5-3,1.5c-0.9,1-1.3,2.2-1.3,3.8v7.4c0,0.3-0.2,0.6-0.6,0.9
			c-0.4,0.3-0.9,0.4-1.4,0.4c-0.5,0-0.9-0.1-1.3-0.4C157.9,45.1,157.8,44.8,157.8,44.4z"/>
	</g>
	<g>
		<path fill="#FFFFFF" d="M62,59.9c0.3,0,0.6-0.1,0.8-0.4c0.2-0.3,0.3-0.6,0.3-1c0-0.4-0.1-0.7-0.3-1C62.5,57.2,62.3,57,62,57h-4.4
			v-6.5c0-0.3-0.2-0.6-0.6-0.9s-0.9-0.4-1.3-0.4c-0.5,0-0.9,0.1-1.3,0.4c-0.4,0.2-0.6,0.5-0.6,0.9v18c0,3.7,2.1,5.6,6.3,5.6h1.2
			c0.5,0,0.9-0.1,1.2-0.5s0.4-0.7,0.4-1.1c0-0.5-0.1-0.9-0.4-1.1c-0.3-0.3-0.7-0.5-1.2-0.5h-1.2c-0.9,0-1.6-0.2-1.9-0.5
			c-0.4-0.4-0.6-0.9-0.6-1.9v-8.6L62,59.9L62,59.9z"/>
		<path fill="#FFFFFF" d="M68.2,48.9c-0.6,0-1.1,0.2-1.5,0.6c-0.4,0.4-0.7,0.9-0.7,1.4s0.2,1,0.7,1.4c0.4,0.4,0.9,0.6,1.5,0.6
			c0.6,0,1.1-0.2,1.5-0.6c0.4-0.4,0.7-0.9,0.7-1.4c0-0.6-0.2-1-0.7-1.4C69.3,49,68.9,48.9,68.2,48.9z"/>
		<path fill="#FFFFFF" d="M69.6,57.4c-0.4-0.2-0.8-0.3-1.4-0.3s-1,0.1-1.3,0.3s-0.5,0.5-0.5,0.9v14.5c0,0.3,0.2,0.6,0.5,0.9
			c0.4,0.3,0.8,0.4,1.3,0.4s1-0.1,1.3-0.4c0.4-0.3,0.6-0.6,0.6-0.9V58.3C70.1,57.9,69.9,57.6,69.6,57.4z"/>
		<path fill="#FFFFFF" d="M93.2,56.9c-1.1,0-2.1,0.3-3.1,0.9c-0.9,0.6-1.8,1.5-2.3,2.7c-0.4-1.1-1-1.9-1.9-2.6c-0.8-0.7-1.8-1-2.8-1
			c-2.1,0-3.7,0.9-4.8,2.8v-1.3c0-0.4-0.2-0.7-0.5-0.9c-0.3-0.2-0.7-0.3-1.2-0.3c-0.6,0-1,0.1-1.3,0.3s-0.5,0.5-0.5,0.9v14.5
			c0,0.3,0.2,0.6,0.5,0.9c0.4,0.3,0.8,0.4,1.3,0.4s0.9-0.1,1.3-0.4c0.4-0.3,0.6-0.6,0.6-0.9v-8.9c0-1.1,0.3-2,1-2.7
			c0.7-0.7,1.4-1,2.3-1c0.9,0,1.7,0.3,2.3,1c0.7,0.7,1,1.6,1,2.7v8.9c0,0.4,0.2,0.7,0.6,0.9s0.8,0.3,1.3,0.3c0.5,0,1-0.1,1.3-0.3
			c0.4-0.2,0.6-0.5,0.6-0.9v-9c0-1.1,0.3-2,1-2.7c0.7-0.7,1.5-1,2.3-1c0.9,0,1.7,0.3,2.3,1c0.7,0.7,1,1.6,1,2.8v8.9
			c0,0.3,0.2,0.6,0.6,0.9c0.4,0.3,0.8,0.4,1.3,0.4c0.5,0,0.9-0.1,1.3-0.4c0.4-0.3,0.6-0.6,0.6-0.9v-8.9c0-2.1-0.6-3.8-1.9-5.1
			C96.4,57.5,94.9,56.9,93.2,56.9z"/>
		<path fill="#FFFFFF" d="M114.7,66.6c0.5,0,0.9,0,1.2-0.1c0.3,0,0.7-0.1,1-0.3c0.4-0.2,0.6-0.5,0.8-0.9c0.2-0.5,0.2-1,0.2-1.8
			c0-1.9-0.7-3.5-2.1-4.7c-1.4-1.2-3.1-1.9-5-1.9c-2,0-3.8,0.7-5.3,2c-1.5,1.4-2.2,3-2.2,4.9v3.4c0,2.1,0.8,3.8,2.3,5.2
			c1.6,1.3,3.6,2,6,2c1.7,0,3.1-0.3,4.2-0.9c1.1-0.6,1.7-1.2,1.7-1.8c0-0.4-0.1-0.7-0.4-1.1c-0.3-0.4-0.6-0.6-1-0.6
			c-0.2,0-0.7,0.2-1.6,0.7c-0.9,0.5-1.8,0.7-2.8,0.7c-1.4,0-2.5-0.3-3.4-1c-0.9-0.7-1.3-1.7-1.3-2.9v-0.9L114.7,66.6L114.7,66.6z
			 M107.1,63c0-0.9,0.4-1.8,1.1-2.4c0.7-0.6,1.6-0.9,2.6-0.9c1,0,1.9,0.3,2.6,1c0.7,0.7,1,1.5,1,2.4c0,0.4-0.1,0.7-0.3,0.9
			c-0.2,0.1-0.5,0.2-1,0.2h-5.9L107.1,63L107.1,63z"/>
	</g>
	<g>
		<path fill="#FFFFFF" d="M32.1,7c-0.4-0.8-0.2-1.3,0.3-1.9c1.2-1.5,2.4-2.9,3.5-4.4c0.6-0.8,1-0.9,1.9-0.5c4.5,1.9,9,3.8,13.5,5.8
			c0.6,0.3,0.9,0.7,0.9,1.4c0,1.5,0,2.9,0,4.5c0,2.4-1.9,3.8-4.2,3.2c-0.1,0-0.2,0-0.3,0c-0.3,0.8-0.7,1.6-1,2.4
			c-1.7,3.6-3.5,7-5.8,10.2c-1.1,1.6-2.6,3-4.2,4.2c-0.2,0.1-0.4,0.4-0.4,0.7c0,2.6,0,5.2,0,7.7c0,0.1,0,0.3,0,0.4
			c0.6,0,1.2,0,1.8,0.1c1.3,0.1,2.4,0.9,3.1,1.9c0.6,0.9,1.1,1.8,1.7,2.6c0.5,0.8,0.7,1.6,0.7,2.4c0,8.6,0,17.3,0,25.9
			c0,0.2,0,0.3,0,0.6c-0.9,0-1.7,0-2.6,0c0-0.2,0-0.5,0-0.7c0-8.6,0-17.2,0-25.7c0-0.2,0-0.4,0-0.5c-0.5-1.4-1.4-2.7-2.4-3.7
			c0-0.1-0.1-0.1-0.2-0.2c-0.1-0.1-0.3,0-0.4,0c-0.7,0-0.9,0-1.7,0c0,0.9,0,1.7,0,2.6c0.9,0,1.7,0,2.5,0c0.9,0,1.4,0.4,1.4,1.2
			c0,0.8-0.5,1.2-1.4,1.2c-11.2,0-22.3,0-33.5,0c-1,0-1.7-0.7-1.3-1.6c0.2-0.5,0.6-0.8,1.2-0.8c0.9,0,1.8,0,2.7,0c0-0.9,0-1.7,0-2.6
			c-0.9,0-1.8,0-2.7,0c-0.3,0-0.7,0.4-0.9,0.7c-0.6,0.8-1.1,1.6-1.6,2.4c-0.2,0.4-0.3,0.9-0.3,1.3c0,8.5,0,17.1,0,25.7
			c0,0.3,0,0.5,0,0.9c-0.9,0-1.7,0-2.6,0c0-0.2,0-0.4,0-0.6c0-8.6,0-17.2,0-25.7c0-1,0.3-1.9,0.9-2.8c0.5-0.8,0.9-1.5,1.5-2.2
			c0.9-1.5,2.3-2.2,4.1-2.2c0.6,0,1.1,0,1.8,0c0-0.2,0-0.5,0-0.7c0-4.1,0-8.3,0-12.4c0-1.2,0.4-1.6,1.6-1.6c1.1,0,2.3,0,3.5,0
			c-0.2-0.6-0.4-1.2-0.5-1.8c-0.2-1.2,0-2.3,0.6-3.4c1.4-2.3,2.8-4.7,4.2-7c0.6-1,1.5-1.8,2.7-2.2c3.8-1.4,7.6-2.8,11.4-4.3
			C31.7,7.2,31.9,7.1,32.1,7z M19.5,25.9c0,0,0.1-0.1,0.1-0.2c-0.4-0.5-0.8-1-1.1-1.5c-0.6-0.7-0.5-1.7,0.3-2.1
			c0.5-0.3,1-0.6,1.6-0.9c1.5-0.8,3-1.4,4.1-2.9c0.4-0.6,1-0.5,1.6-0.1c0.5,0.3,1,0.6,1.6,0.9c1,0.5,2.2,0.8,3.4,0.8
			c0.6,0,1.1,0.2,1.3,0.8c0.2,0.6,0,1-0.4,1.5c-0.3,0.3-0.6,0.6-0.9,1c-0.7,1-1.3,2.1-1.9,3.1c-0.5,0.9-1.2,1.7-2.1,2.2
			c-1.9,1.1-3.9,2.3-5.8,3.5c-1.3,0.8-1.6,2.2-0.9,3.4s2.1,1.5,3.4,0.7c1.6-0.9,3.2-1.9,4.8-2.9c1-0.6,2-1.2,3.2-1.7
			c3.1-1.1,5.6-3.2,7.4-5.8c1.9-2.7,3.4-5.5,4.8-8.4c0.6-1.1,1-2.3,1.6-3.5c-0.1-0.1-0.2-0.1-0.3-0.2c-3.3-1.7-6.6-3.3-9.9-4.9
			c-0.2-0.1-0.6-0.1-0.8,0c-4.5,1.7-9,3.4-13.5,5c-0.8,0.3-1.3,0.8-1.7,1.4c-1.2,2.1-2.4,4.2-3.7,6.2c-1,1.6-0.7,2.9,0.2,4.3
			c0,0.1,0.2,0.2,0.4,0.2C17.3,25.9,18.4,25.9,19.5,25.9z M22.1,28.5C22.1,28.5,22.1,28.5,22.1,28.5c-3.9-0.1-7.8-0.1-11.6-0.1
			c0,5.8,0,11.6,0,17.4c7.8,0,15.6,0,23.4,0c0-4.1,0-8.2,0-12.4c-1,0.4-2,0.8-2.9,1.3c-2,1.1-4,2.4-6.1,3.6
			c-1.1,0.7-2.3,0.9-3.5,0.6c-2.1-0.4-3.5-1.9-3.9-4c-0.3-1.9,0.6-3.8,2.3-4.9C20.5,29.5,21.3,29,22.1,28.5z M35,5.8
			c0.1,0.1,0.1,0.1,0.2,0.1c4.4,2.2,8.9,4.5,13.3,6.6c0.7,0.3,1.2,0,1.2-0.8c0-1.1,0-2.2,0-3.3c0-0.3-0.1-0.5-0.4-0.6
			c-0.9-0.4-1.8-0.8-2.7-1.1c-2.9-1.3-5.9-2.5-8.8-3.8c-0.2-0.1-0.5-0.1-0.6,0C36.5,3.9,35.8,4.8,35,5.8z M25.6,21
			c-1.5,0.9-2.9,1.9-4.3,2.8c0.2,0.5,0.5,1.1,0.8,1.7c0.1,0.3,0.2,0.4,0.6,0.4c1,0,2.1,0,3.2,0c0.2,0,0.4-0.2,0.5-0.3
			c0.6-0.9,1.2-1.9,1.9-2.9c0.1-0.2,0.2-0.3,0.3-0.5C27.5,21.8,26.5,21.4,25.6,21z"/>
		<path fill="#FFFFFF" d="M21.8,74.2c-3.9,0-7.9,0-11.9,0c-0.4,0-0.6-0.1-0.8-0.4c-5.7-9-0.5-21,10-22.8c8.2-1.4,16.1,4.2,17.4,12.3
			c0.6,3.7-0.1,7.2-2.1,10.4c-0.2,0.4-0.5,0.5-0.9,0.5C29.7,74.2,25.7,74.2,21.8,74.2z M17.7,61.7c-0.5-0.5-1-1.1-1.6-1.6
			c-0.7-0.7-1.6-0.7-2.2,0c-0.6,0.6-0.7,1.5,0,2.2c2.1,2.1,4.3,4.3,6.4,6.4c0.7,0.7,1.5,0.7,2.2,0c2.5-2.5,5-5,7.5-7.5
			c0.7-0.7,0.6-1.5,0-2.2c-0.7-0.7-1.5-0.7-2.2,0c-1.9,1.9-3.9,3.8-5.8,5.8c-0.1,0.1-0.3,0.4-0.4,0.6C20.2,64.1,18.9,62.9,17.7,61.7
			z"/>
	</g>
</g>
</svg>
