<?xml version="1.0" encoding="utf-8"?>
<!-- Generator: Adobe Illustrator 17.1.0, SVG Export Plug-In . SVG Version: 6.00 Build 0)  -->
<!DOCTYPE svg PUBLIC "-//W3C//DTD SVG 1.1//EN" "http://www.w3.org/Graphics/SVG/1.1/DTD/svg11.dtd">
<svg version="1.1" id="Capa_1" xmlns="http://www.w3.org/2000/svg" xmlns:xlink="http://www.w3.org/1999/xlink" x="0px" y="0px"
	 viewBox="0 0 146.5 22.1" enable-background="new 0 0 146.5 22.1" xml:space="preserve">
<g>
	<g>
		<path fill="#FFFFFF" d="M0,16.3v-2.6c0-1.7,0.5-3.1,1.5-4.2C2.5,8.5,4,8,6,8c1.3,0,2.3,0.2,3.1,0.6c0.8,0.4,1.3,0.9,1.3,1.5
			c0,0.3-0.1,0.7-0.4,1c-0.2,0.3-0.5,0.5-0.9,0.5c-0.1,0-0.4-0.1-1-0.4c-0.6-0.3-1.2-0.4-2-0.4c-2.1,0-3.2,1-3.2,3v2.6
			c0,2,1.1,3,3.2,3c0.7,0,1.4-0.2,2-0.5c0.6-0.3,0.9-0.5,1.1-0.5c0.4,0,0.7,0.2,0.9,0.5c0.2,0.3,0.4,0.6,0.4,1c0,0.5-0.4,1-1.3,1.5
			c-0.9,0.5-2,0.7-3.2,0.7c-2,0-3.5-0.5-4.5-1.6C0.5,19.4,0,18,0,16.3z"/>
		<path fill="#FFFFFF" d="M13.1,20.8V1c0-0.3,0.1-0.5,0.4-0.7C13.8,0.1,14.2,0,14.6,0c0.4,0,0.8,0.1,1.1,0.3C16,0.5,16.2,0.7,16.2,1
			v9.2C16.5,9.6,17,9,17.6,8.6C18.2,8.2,19,8,19.9,8c1.4,0,2.5,0.6,3.5,1.7c1,1.1,1.5,2.5,1.5,4v7.2c0,0.3-0.2,0.6-0.5,0.7
			c-0.3,0.2-0.7,0.3-1.1,0.3c-0.4,0-0.7-0.1-1-0.3c-0.3-0.2-0.5-0.4-0.5-0.7v-7.1c0-0.8-0.3-1.5-0.9-2.1c-0.6-0.6-1.3-0.9-2.1-0.9
			c-0.7,0-1.4,0.3-1.9,0.8c-0.6,0.5-0.8,1.3-0.8,2.2v7.1c0,0.2-0.2,0.5-0.5,0.7c-0.3,0.2-0.7,0.3-1.1,0.3c-0.4,0-0.8-0.1-1.1-0.3
			C13.3,21.3,13.1,21.1,13.1,20.8z"/>
		<path fill="#FFFFFF" d="M27.8,16.3v-2.7c0-1.5,0.6-2.8,1.8-3.9C30.7,8.5,32.1,8,33.8,8c1.6,0,2.9,0.5,4.1,1.5
			c1.1,1,1.7,2.3,1.7,3.8c0,0.6-0.1,1.1-0.2,1.4c-0.1,0.4-0.3,0.6-0.6,0.8c-0.3,0.1-0.6,0.2-0.8,0.3c-0.3,0-0.6,0.1-1,0.1h-6.1v0.7
			c0,1,0.3,1.7,1,2.3s1.6,0.9,2.7,0.9c0.8,0,1.5-0.2,2.2-0.6c0.7-0.4,1.1-0.6,1.3-0.6c0.3,0,0.6,0.2,0.8,0.5
			c0.2,0.3,0.3,0.6,0.3,0.9c0,0.5-0.5,1-1.4,1.4c-0.9,0.5-2.1,0.7-3.4,0.7c-2,0-3.6-0.5-4.8-1.6C28.4,19.4,27.8,18,27.8,16.3z
			 M30.8,13.9h4.8c0.4,0,0.7-0.1,0.9-0.2c0.1-0.1,0.2-0.3,0.2-0.7c0-0.8-0.3-1.4-0.8-1.9c-0.6-0.5-1.3-0.8-2.1-0.8
			c-0.8,0-1.5,0.3-2.1,0.8c-0.6,0.5-0.9,1.1-0.9,1.9V13.9z"/>
		<path fill="#FFFFFF" d="M41.9,16.3v-2.6c0-1.7,0.5-3.1,1.5-4.2c1-1.1,2.5-1.6,4.5-1.6c1.3,0,2.3,0.2,3.1,0.6
			c0.8,0.4,1.3,0.9,1.3,1.5c0,0.3-0.1,0.7-0.4,1c-0.2,0.3-0.5,0.5-0.9,0.5c-0.1,0-0.4-0.1-1-0.4c-0.6-0.3-1.2-0.4-2-0.4
			c-2.1,0-3.2,1-3.2,3v2.6c0,2,1.1,3,3.2,3c0.7,0,1.4-0.2,2-0.5c0.6-0.3,0.9-0.5,1.1-0.5c0.4,0,0.7,0.2,0.9,0.5
			c0.2,0.3,0.4,0.6,0.4,1c0,0.5-0.4,1-1.3,1.5c-0.9,0.5-2,0.7-3.2,0.7c-2,0-3.5-0.5-4.5-1.6C42.4,19.4,41.9,18,41.9,16.3z"/>
		<path fill="#FFFFFF" d="M55,20.8V1c0-0.3,0.1-0.5,0.4-0.7S56,0,56.5,0c0.4,0,0.8,0.1,1.1,0.3C57.9,0.5,58,0.7,58,1v12.9l6-5.5
			C64.3,8.1,64.5,8,64.7,8c0.3,0,0.7,0.2,1,0.5c0.3,0.3,0.5,0.6,0.5,1c0,0.2-0.1,0.5-0.3,0.6l-3.7,3.3l4.5,6.5
			c0.1,0.2,0.2,0.3,0.2,0.5c0,0.3-0.2,0.7-0.6,1C66,21.8,65.6,22,65.2,22c-0.3,0-0.6-0.1-0.8-0.4l-4.2-6.3L58,17.2v3.6
			c0,0.2-0.2,0.5-0.5,0.7c-0.3,0.2-0.7,0.3-1.1,0.3s-0.8-0.1-1.1-0.3C55.2,21.3,55,21.1,55,20.8z"/>
		<path fill="#FFFFFF" d="M68.4,16.3v-2.7c0-1.5,0.6-2.8,1.8-3.9C71.3,8.5,72.7,8,74.4,8c1.6,0,2.9,0.5,4.1,1.5
			c1.1,1,1.7,2.3,1.7,3.8c0,0.6-0.1,1.1-0.2,1.4c-0.1,0.4-0.3,0.6-0.6,0.8c-0.3,0.1-0.6,0.2-0.8,0.3c-0.3,0-0.6,0.1-1,0.1h-6.1v0.7
			c0,1,0.3,1.7,1,2.3s1.6,0.9,2.7,0.9c0.8,0,1.5-0.2,2.2-0.6c0.7-0.4,1.1-0.6,1.3-0.6c0.3,0,0.6,0.2,0.8,0.5
			c0.2,0.3,0.3,0.6,0.3,0.9c0,0.5-0.5,1-1.4,1.4c-0.9,0.5-2.1,0.7-3.4,0.7c-2,0-3.6-0.5-4.8-1.6C69,19.4,68.4,18,68.4,16.3z
			 M71.4,13.9h4.8c0.4,0,0.7-0.1,0.9-0.2c0.1-0.1,0.2-0.3,0.2-0.7c0-0.8-0.3-1.4-0.8-1.9c-0.6-0.5-1.3-0.8-2.1-0.8
			c-0.8,0-1.5,0.3-2.1,0.8c-0.6,0.5-0.9,1.1-0.9,1.9V13.9z"/>
		<path fill="#FFFFFF" d="M82.9,20.8V9.1c0-0.3,0.1-0.5,0.4-0.7c0.3-0.2,0.6-0.3,1.1-0.3c0.4,0,0.7,0.1,1,0.3
			c0.3,0.2,0.4,0.4,0.4,0.7v1.3c0.3-0.7,0.8-1.3,1.5-1.7C88,8.2,88.7,8,89.5,8h0.9c0.3,0,0.6,0.1,0.8,0.4c0.2,0.3,0.3,0.6,0.3,0.9
			c0,0.4-0.1,0.7-0.3,1c-0.2,0.3-0.5,0.4-0.8,0.4h-0.9c-0.9,0-1.7,0.4-2.4,1.2c-0.7,0.8-1.1,1.8-1.1,3.1v5.9c0,0.2-0.2,0.5-0.5,0.7
			c-0.3,0.2-0.7,0.3-1.1,0.3c-0.4,0-0.8-0.1-1.1-0.3C83.1,21.3,82.9,21.1,82.9,20.8z"/>
	</g>
	<g>
		<g>
			<path fill="#D6D6D6" d="M95.6,17.3V2.9c0-0.3,0.2-0.5,0.5-0.7c0.3-0.2,0.7-0.3,1-0.3c0.4,0,0.7,0.1,1.1,0.3s0.5,0.4,0.5,0.7v5.3
				h3.5c0.2,0,0.5,0.1,0.6,0.3c0.2,0.2,0.2,0.5,0.2,0.8s-0.1,0.6-0.2,0.8c-0.2,0.2-0.4,0.3-0.6,0.3h-3.5v6.9c0,0.7,0.1,1.2,0.4,1.5
				c0.3,0.3,0.8,0.4,1.6,0.4h1c0.4,0,0.7,0.1,1,0.4s0.3,0.6,0.3,0.9c0,0.4-0.1,0.7-0.3,0.9c-0.2,0.3-0.5,0.4-1,0.4h-1
				C97.3,21.8,95.6,20.3,95.6,17.3z"/>
			<path fill="#D6D6D6" d="M105.2,3.1c0-0.4,0.2-0.8,0.5-1.1c0.3-0.3,0.8-0.5,1.2-0.5s0.9,0.2,1.2,0.5c0.3,0.3,0.5,0.7,0.5,1.1
				c0,0.4-0.2,0.8-0.5,1.1c-0.3,0.3-0.8,0.5-1.2,0.5s-0.9-0.2-1.2-0.5C105.4,3.9,105.2,3.5,105.2,3.1z M105.4,20.8V9.1
				c0-0.3,0.1-0.5,0.4-0.7c0.3-0.2,0.6-0.3,1.1-0.3c0.4,0,0.8,0.1,1.1,0.3c0.3,0.2,0.4,0.4,0.4,0.7v11.7c0,0.2-0.1,0.5-0.4,0.7
				c-0.3,0.2-0.7,0.3-1.1,0.3s-0.8-0.1-1.1-0.3C105.6,21.3,105.4,21.1,105.4,20.8z"/>
			<path fill="#D6D6D6" d="M112,20.8V9.1c0-0.3,0.1-0.5,0.4-0.7c0.3-0.2,0.6-0.3,1.1-0.3c0.4,0,0.7,0.1,1,0.3
				c0.3,0.2,0.4,0.4,0.4,0.7v1.1c0.8-1.5,2.1-2.2,3.8-2.2c0.8,0,1.6,0.3,2.3,0.8c0.7,0.5,1.2,1.2,1.5,2.1c0.5-1,1.1-1.7,1.9-2.2
				c0.8-0.5,1.6-0.7,2.5-0.7c1.4,0,2.5,0.5,3.5,1.5c1,1,1.5,2.4,1.5,4.1v7.2c0,0.2-0.2,0.5-0.5,0.7c-0.3,0.2-0.7,0.3-1.1,0.3
				c-0.4,0-0.7-0.1-1-0.3c-0.3-0.2-0.5-0.4-0.5-0.7v-7.1c0-0.9-0.3-1.7-0.8-2.2c-0.5-0.5-1.2-0.8-1.9-0.8c-0.7,0-1.3,0.3-1.9,0.8
				c-0.5,0.5-0.8,1.3-0.8,2.2v7.2c0,0.3-0.1,0.6-0.4,0.7c-0.3,0.2-0.7,0.2-1.1,0.2c-0.4,0-0.7-0.1-1-0.2c-0.3-0.2-0.5-0.4-0.5-0.7
				v-7.2c0-0.9-0.3-1.6-0.8-2.1c-0.5-0.6-1.2-0.8-1.9-0.8c-0.7,0-1.4,0.3-1.9,0.8c-0.5,0.5-0.8,1.3-0.8,2.2v7.1
				c0,0.2-0.2,0.5-0.5,0.7c-0.3,0.2-0.7,0.3-1.1,0.3c-0.4,0-0.8-0.1-1.1-0.3C112.1,21.3,112,21.1,112,20.8z"/>
			<path fill="#D6D6D6" d="M134.8,16.3v-2.7c0-1.5,0.6-2.8,1.8-3.9c1.2-1.1,2.6-1.7,4.2-1.7c1.6,0,2.9,0.5,4.1,1.5
				c1.1,1,1.7,2.3,1.7,3.8c0,0.6-0.1,1.1-0.2,1.4c-0.1,0.4-0.3,0.6-0.6,0.8c-0.3,0.1-0.6,0.2-0.8,0.3c-0.3,0-0.6,0.1-1,0.1h-6.1v0.7
				c0,1,0.3,1.7,1,2.3s1.6,0.9,2.7,0.9c0.8,0,1.5-0.2,2.2-0.6c0.7-0.4,1.1-0.6,1.3-0.6c0.3,0,0.6,0.2,0.8,0.5
				c0.2,0.3,0.3,0.6,0.3,0.9c0,0.5-0.5,1-1.4,1.4c-0.9,0.5-2.1,0.7-3.4,0.7c-2,0-3.6-0.5-4.8-1.6C135.4,19.4,134.8,18,134.8,16.3z
				 M137.8,13.9h4.8c0.4,0,0.7-0.1,0.9-0.2c0.1-0.1,0.2-0.3,0.2-0.7c0-0.8-0.3-1.4-0.8-1.9c-0.6-0.5-1.3-0.8-2.1-0.8
				c-0.8,0-1.5,0.3-2.1,0.8c-0.6,0.5-0.9,1.1-0.9,1.9V13.9z"/>
		</g>
	</g>
</g>
</svg>
