<svg xmlns="http://www.w3.org/2000/svg" viewBox="0 0 73 40"><linearGradient id="a" gradientUnits="userSpaceOnUse" x1="1.825" y1="20.34" x2="69.825" y2="19.673"><stop offset=".064" stop-color="#FFF"/><stop offset="1" stop-color="#FFF" stop-opacity=".7"/></linearGradient><path fill="url(#a)" d="M53.2 40H19.8C8.9 40 0 31.1 0 20.2v-.4C0 8.9 8.9 0 19.8 0h33.4C64.1 0 73 8.9 73 19.8v.4C73 31.1 64.1 40 53.2 40z"/><linearGradient id="b" gradientUnits="userSpaceOnUse" x1="3.437" y1="20.579" x2="67.74" y2="19.949"><stop offset=".064" stop-color="#FFF"/><stop offset="1" stop-color="#FFF" stop-opacity=".7"/></linearGradient><path fill="url(#b)" d="M70.7 20.5c0 9.8-8 17.8-17.8 17.8H19.5c-9.8 0-17.8-8-17.8-17.8v-.4c0-9.8 8-17.8 17.8-17.8h33.4c9.8 0 17.8 8 17.8 17.8v.4z"/><path fill="none" stroke="#8BAEC6" stroke-miterlimit="10" d="M71.2 20c0 9.8-8 17.8-17.8 17.8H20c-9.8 0-17.8-8-17.8-17.8v-.4c0-9.8 8-17.8 17.8-17.8h33.4c9.8 0 17.8 8 17.8 17.8v.4z"/><path fill="#5A91AF" d="M41.6 8c-.5-.5-1.3-.5-1.8 0s-.5 1.3 0 1.8l9 9H19.1c-.7 0-1.2.6-1.2 1.2s.6 1.3 1.2 1.3h29.7l-9 9c-.5.5-.5 1.3 0 1.8s1.3.5 1.8 0L52.7 21c.5-.5.5-1.3 0-1.8L41.6 8z"/></svg>